<svg xmlns="http://www.w3.org/2000/svg" width="160" height="120" viewBox="0 0 160 120" role="img" aria-labelledby="title desc">
  <title id="title">Guitar option placeholder</title>
  <desc id="desc">A neutral placeholder thumbnail for a guitar configurator option.</desc>
  <rect width="160" height="120" rx="14" fill="#f4f4f5"/>
  <rect x="10" y="10" width="140" height="100" rx="10" fill="#ffffff" stroke="#e4e4e7"/>
  <path d="M55 71c-9-1-17-9-17-19 0-11 9-20 20-20 7 0 13 3 16 9 3-6 9-9 16-9 11 0 20 9 20 20 0 10-8 18-17 19l-19 21-19-21Z" fill="#d4d4d8"/>
  <path d="M88 44h34c5 0 9 4 9 9s-4 9-9 9H88V44Z" fill="#c4c4c8"/>
  <circle cx="59" cy="53" r="4" fill="#ffffff"/>
  <circle cx="77" cy="53" r="4" fill="#ffffff"/>
  <rect x="70" y="61" width="20" height="5" rx="2.5" fill="#ffffff"/>
</svg>
